# This file uses centimeters as units for non-parametric coordinates.

g default
v 65.356255 -0.000000 122.705399
v 207.026031 -0.000000 122.705399
v 65.356255 0.000000 83.048691
v 207.026031 0.000000 83.048691
v -122.228554 -0.000000 122.705399
v 48.905922 -0.000000 122.705399
v -122.228554 0.000000 83.048691
v 48.905922 0.000000 83.048691
v 48.912148 -0.000000 83.574089
v 48.912148 -0.000000 122.798386
v 65.356819 0.000000 83.574089
v 65.356819 0.000000 122.798386
v 48.785168 -0.000000 38.760868
v 48.785168 -0.000000 83.561882
v 65.356827 0.000000 38.760868
v 65.356827 0.000000 83.561882
v 48.900478 -0.000000 -55.204288
v 48.900478 -0.000000 -0.054977
v 65.472137 0.000000 -55.204288
v 65.472137 0.000000 -0.054977
v 48.903950 -0.000000 -0.052785
v 48.903950 -0.000000 38.769142
v 65.356827 0.000000 -0.052785
v 65.356827 0.000000 38.769142
v -175.836182 -0.000000 121.330307
v -120.156662 -0.000000 121.330307
v -175.836182 0.000000 -53.293453
v -120.156662 0.000000 -53.293453
v -399.629028 -0.000000 120.330811
v -175.800461 -0.000000 120.330811
v -399.629028 0.000000 41.165173
v -175.800461 0.000000 41.165173
v -399.652771 -0.000000 1.333668
v -175.647919 -0.000000 1.333668
v -399.652771 0.000000 -52.986618
v -175.647919 0.000000 -52.986618
v 65.356255 -0.000000 38.969818
v 207.026031 -0.000000 38.969818
v 65.356255 0.000000 -0.882511
v 207.026031 0.000000 -0.882511
v -122.228554 -0.000000 38.774200
v 48.905922 -0.000000 38.774200
v -122.228554 0.000000 -0.882511
v 48.905922 0.000000 -0.882511
v -454.850708 -0.000000 121.330307
v -399.171204 -0.000000 121.330307
v -454.850708 0.000000 -53.293453
v -399.171204 0.000000 -53.293453
vt 30.863911 -20.785938
vt 57.471565 -20.785938
vt 57.471565 -11.291553
vt 30.863911 -11.291553
vt -4.367245 -20.785938
vt 27.774307 -20.785938
vt 27.774307 -11.291553
vt -4.367245 -11.291553
vt 27.775475 -11.417339
vt 27.775475 -20.808201
vt 30.864021 -20.808201
vt 30.864021 -11.417339
vt 27.751621 -0.688410
vt 27.751621 -11.414419
vt 30.864021 -11.414419
vt 30.864021 -0.688410
vt 27.773285 21.808201
vt 27.773285 8.604663
vt 30.885689 8.604663
vt 30.885689 21.808201
vt -6.861369 -1.006266
vt 7.861372 -1.006266
vt 7.861372 1.119626
vt -6.861369 1.119626
vt -14.435541 -20.456724
vt -3.978117 -20.456724
vt -3.978117 21.350721
vt -14.435541 21.350721
vt -56.467110 -20.217428
vt -14.428831 -20.217428
vt -14.428831 -1.264035
vt -56.467110 -1.264035
vt -56.471565 8.272200
vt -14.400185 8.272200
vt -14.400185 21.277262
vt -56.471565 21.277262
vt 30.863911 -0.691603
vt 57.471565 -0.691603
vt 57.471565 8.802783
vt 30.863911 8.802783
vt -4.367245 -0.691603
vt 27.774307 -0.691603
vt 27.774307 8.802783
vt -4.367245 8.802783
vt -14.435541 -20.456724
vt -3.978117 -20.456724
vt -3.978117 21.350721
vt -14.435541 21.350721
vn 0.000000 1.000000 0.000000
vn 0.000000 1.000000 0.000000
vn 0.000000 1.000000 0.000000
vn 0.000000 1.000000 0.000000
vn 0.000000 1.000000 0.000000
vn 0.000000 1.000000 0.000000
vn 0.000000 1.000000 0.000000
vn 0.000000 1.000000 0.000000
vn -0.000000 1.000000 0.000000
vn -0.000000 1.000000 0.000000
vn -0.000000 1.000000 0.000000
vn -0.000000 1.000000 0.000000
vn -0.000000 1.000000 0.000000
vn -0.000000 1.000000 0.000000
vn -0.000000 1.000000 0.000000
vn -0.000000 1.000000 0.000000
vn -0.000000 1.000000 0.000000
vn -0.000000 1.000000 0.000000
vn -0.000000 1.000000 0.000000
vn -0.000000 1.000000 0.000000
vn -0.000000 1.000000 0.000000
vn -0.000000 1.000000 0.000000
vn -0.000000 1.000000 0.000000
vn -0.000000 1.000000 0.000000
vn 0.000000 1.000000 0.000000
vn 0.000000 1.000000 0.000000
vn 0.000000 1.000000 0.000000
vn 0.000000 1.000000 0.000000
vn 0.000000 1.000000 0.000000
vn 0.000000 1.000000 0.000000
vn 0.000000 1.000000 0.000000
vn 0.000000 1.000000 0.000000
vn 0.000000 1.000000 0.000000
vn 0.000000 1.000000 0.000000
vn 0.000000 1.000000 0.000000
vn 0.000000 1.000000 0.000000
vn 0.000000 1.000000 0.000000
vn 0.000000 1.000000 0.000000
vn 0.000000 1.000000 0.000000
vn 0.000000 1.000000 0.000000
vn 0.000000 1.000000 0.000000
vn 0.000000 1.000000 0.000000
vn 0.000000 1.000000 0.000000
vn 0.000000 1.000000 0.000000
vn 0.000000 1.000000 0.000000
vn 0.000000 1.000000 0.000000
vn 0.000000 1.000000 0.000000
vn 0.000000 1.000000 0.000000
s off
g polySurface5
f 1/1/1 2/2/2 4/3/3 3/4/4
f 5/5/5 6/6/6 8/7/7 7/8/8
f 9/9/9 10/10/10 12/11/11 11/12/12
f 13/13/13 14/14/14 16/15/15 15/16/16
f 17/17/17 18/18/18 20/19/19 19/20/20
f 21/21/21 22/22/22 24/23/23 23/24/24
f 25/25/25 26/26/26 28/27/27 27/28/28
f 29/29/29 30/30/30 32/31/31 31/32/32
f 33/33/33 34/34/34 36/35/35 35/36/36
f 37/37/37 38/38/38 40/39/39 39/40/40
f 41/41/41 42/42/42 44/43/43 43/44/44
f 45/45/45 46/46/46 48/47/47 47/48/48
