# This file uses centimeters as units for non-parametric coordinates.

g default
v -390.273351 -1.105927 62.121324
v -390.273351 51.200825 62.121324
v -390.273351 51.200825 -19.360268
v -390.273351 -1.105927 -19.360268
v -388.090035 51.200825 20.435426
v -388.090035 151.463702 20.435426
v -368.687440 151.463702 38.348860
v -337.872293 151.463702 38.348877
v -337.872293 151.463702 4.412194
v -368.687440 151.463702 4.412179
v -368.687440 251.462441 38.348860
v -337.872293 251.462441 38.348877
v -337.872293 251.462441 4.412194
v -368.687440 251.462441 4.412179
v -364.346351 291.140969 21.914015
v -353.813149 291.140969 32.447173
v -342.213173 291.140969 20.847039
v -352.746375 291.140969 10.313881
v -359.266274 348.657558 21.669116
v -353.568367 348.657558 27.367039
v -347.293251 348.657558 21.091931
v -352.991157 348.657558 15.394014
v -355.383280 348.657558 23.697158
v -351.176244 348.657558 23.697160
v -351.176244 348.657558 19.063896
v -355.383280 348.657558 19.063903
v -354.053321 409.416232 22.232596
v -352.505960 409.416232 22.232598
v -352.505960 409.416232 20.528460
v -354.053321 409.416232 20.528462
v -316.286416 -1.105927 42.594611
v -335.813118 -1.105927 62.121324
v -335.813118 51.200825 62.121324
v -335.813118 51.200825 -19.360268
v -316.286416 -1.105927 0.166442
v -335.813118 -1.105927 -19.360268
v -326.965766 51.200825 3.691641
v -326.965974 51.200825 44.075354
v -333.327525 151.463702 34.899292
v -326.965974 151.463702 44.075354
v -326.965766 151.463702 3.691641
v -365.179087 51.200825 57.252179
v -332.958776 51.200825 53.108969
v -364.816749 151.463702 42.540564
v -365.179087 151.463702 57.252179
v -332.958776 151.463702 53.108969
v -336.279427 51.200825 -10.347893
v -363.271918 51.200825 -12.933272
v -336.279427 151.463702 -10.347893
v -363.271918 151.463702 -12.933272
v -341.742983 151.463702 0.220474
v -320.191348 51.200825 46.499565
v -316.286416 42.950111 42.594611
v -320.191348 51.200825 -3.738511
v -316.286416 42.950111 0.166442
v -390.273351 51.200825 58.497374
v -390.273351 -1.105927 58.497374
v -330.899498 -1.105927 57.207771
v -329.137437 51.200825 55.445706
v -322.017489 -1.105927 48.325706
v -323.001052 -1.105927 -6.548217
v -323.001052 51.200825 -6.548230
v -323.779550 51.200825 50.087775
v -330.899498 25.047447 57.207771
v -322.017489 25.047445 48.325706
v -338.728249 25.047447 49.379068
v -329.846171 25.047445 40.497003
v -338.728249 -1.105927 49.379068
v -329.846171 -1.105927 40.497003
v -390.273351 -1.105927 -15.325538
v -329.848978 -1.105927 -13.396156
v -329.848978 51.200825 -13.396156
v -390.273351 51.200825 -15.325538
v -329.848978 25.047447 -13.396156
v -323.001052 25.047447 -6.548224
v -336.741611 25.047447 -6.503566
v -329.893685 25.047447 0.344364
v -329.893685 -1.105927 0.344371
v -336.741611 -1.105927 -6.503566
vt 0.496899 1.000000
vt 0.496899 1.000000
vt 0.503101 1.000000
vt 0.503101 1.000000
vt 0.577206 0.107317
vt 0.422794 0.107317
vt 0.422794 0.000000
vt 0.577206 0.000000
vt 0.633587 0.000000
vt 0.364919 0.000000
vt 0.351730 0.000000
vt 0.351730 0.127415
vt 0.364919 0.127415
vt 0.633587 0.127415
vt 0.648270 0.127415
vt 0.648270 0.000000
vt 0.384529 0.371648
vt 0.384529 0.127415
vt 0.417405 0.127415
vt 0.417405 0.371648
vt 0.564376 0.371648
vt 0.564376 0.127415
vt 0.615471 0.127415
vt 0.615471 0.371648
vt 0.624880 0.371648
vt 0.624880 0.127415
vt 0.503440 0.127415
vt 0.503440 0.371648
vt 0.369450 0.127415
vt 0.369450 0.371648
vt 0.422991 0.371648
vt 0.438246 0.371648
vt 0.561754 0.371648
vt 0.438246 0.371648
vt 0.438246 0.615237
vt 0.438246 0.615237
vt 0.561754 0.371648
vt 0.561754 0.615237
vt 0.561754 0.615237
vt 0.459724 0.711891
vt 0.498058 0.711891
vt 0.501942 0.711891
vt 0.540275 0.711891
vt 0.478213 0.851997
vt 0.498950 0.851997
vt 0.501050 0.851997
vt 0.521787 0.851997
vt 0.491569 0.851997
vt 0.491569 0.851997
vt 0.508431 0.851997
vt 0.508431 0.851997
vt 0.450800 0.371648
vt 0.577009 0.371648
vt 0.408583 0.127415
vt 0.591417 0.127415
vt 0.351730 0.000000
vt 0.351730 0.127415
vt 0.430428 0.063708
vt 0.398103 0.063708
vt 0.398103 0.000000
vt 0.430428 0.000000
vt 0.401937 0.063708
vt 0.401937 0.000000
vt 0.395524 0.127415
vt 0.376025 0.127415
vt 0.369612 0.000000
vt 0.369612 0.063708
vt 0.648270 0.127415
vt 0.648270 0.000000
vt 0.601643 0.063708
vt 0.626565 0.063708
vt 0.626565 0.000000
vt 0.626565 0.127415
vt 0.601643 0.127415
vt 0.601643 0.000000
vt 0.601480 0.063708
vt 0.576558 0.063708
vt 0.576558 0.000000
vt 0.601480 0.000000
vn 0.000000 1.000000 0.000000
vn 0.000000 1.000000 0.000000
vn 0.000000 1.000000 0.000000
vn 0.000000 1.000000 0.000000
vn 1.000000 0.000000 0.000000
vn 1.000000 0.000000 0.000000
vn 1.000000 0.000000 0.000000
vn 1.000000 0.000000 0.000000
vn -1.000000 0.000000 0.000000
vn -1.000000 0.000000 0.000000
vn -1.000000 0.000000 0.000000
vn -1.000000 0.000000 0.000000
vn -1.000000 0.000000 0.000000
vn -1.000000 0.000000 0.000000
vn -1.000000 0.000000 0.000000
vn -1.000000 0.000000 0.000000
vn 0.833309 0.000000 0.552808
vn 0.833309 0.000000 0.552808
vn 0.833309 0.000000 0.552808
vn 0.833309 0.000000 0.552808
vn 0.833309 0.000000 -0.552807
vn 0.833309 0.000000 -0.552807
vn 0.833309 0.000000 -0.552807
vn 0.833309 0.000000 -0.552807
vn -0.802399 0.000000 -0.596788
vn -0.802399 0.000000 -0.596788
vn -0.802399 0.000000 -0.596788
vn -0.802399 0.000000 -0.596788
vn -0.849028 0.000000 0.528347
vn -0.849028 0.000000 0.528347
vn -0.849028 0.000000 0.528347
vn -0.849028 0.000000 0.528347
vn 0.000000 1.000000 0.000000
vn 0.000000 1.000000 0.000000
vn 0.000000 1.000000 -0.000000
vn 0.000000 1.000000 0.000000
vn 0.000000 1.000000 0.000000
vn -0.000001 0.000000 1.000000
vn -0.000001 0.000000 1.000000
vn -0.000001 0.000000 1.000000
vn -0.000001 0.000000 1.000000
vn 1.000000 0.000000 0.000000
vn 1.000000 0.000000 0.000000
vn 1.000000 0.000000 0.000000
vn 1.000000 0.000000 0.000000
vn 0.000001 0.000000 -1.000000
vn 0.000001 0.000000 -1.000000
vn 0.000001 0.000000 -1.000000
vn 0.000001 0.000000 -1.000000
vn -1.000000 0.000000 0.000000
vn -1.000000 0.000000 0.000000
vn -1.000000 0.000000 0.000000
vn -1.000000 0.000000 0.000000
vn -0.240222 0.230312 0.943000
vn -0.240222 0.230312 0.943000
vn -0.240222 0.230312 0.943000
vn -0.240222 0.230312 0.943000
vn 0.947422 0.210104 0.241345
vn 0.947422 0.210104 0.241345
vn 0.947422 0.210104 0.241345
vn 0.947422 0.210104 0.241345
vn 0.240222 0.230311 -0.943001
vn 0.240222 0.230311 -0.943001
vn 0.240222 0.230311 -0.943001
vn 0.240222 0.230311 -0.943001
vn -0.947421 0.210109 -0.241345
vn -0.947421 0.210109 -0.241345
vn -0.947421 0.210109 -0.241345
vn -0.947421 0.210109 -0.241345
vn -0.705596 0.065325 0.705597
vn -0.705596 0.065325 0.705597
vn -0.705596 0.065325 0.705597
vn -0.705596 0.065325 0.705597
vn 0.705864 0.059340 0.705858
vn 0.705864 0.059340 0.705858
vn 0.705864 0.059340 0.705858
vn 0.705864 0.059340 0.705858
vn 0.705596 0.065325 -0.705597
vn 0.705596 0.065325 -0.705597
vn 0.705596 0.065325 -0.705597
vn 0.705596 0.065325 -0.705597
vn -0.705864 0.059340 -0.705858
vn -0.705864 0.059340 -0.705858
vn -0.705864 0.059340 -0.705858
vn -0.705863 0.059340 -0.705858
vn 0.000000 1.000000 0.000000
vn 0.000000 1.000000 0.000000
vn 0.000000 1.000000 0.000000
vn 0.000000 1.000000 0.000000
vn 0.000000 1.000000 0.000000
vn 0.000000 1.000000 0.000000
vn 0.000000 1.000000 0.000000
vn 0.000000 1.000000 0.000000
vn 0.000000 1.000000 0.000000
vn 0.000000 1.000000 0.000000
vn 0.000000 1.000000 0.000000
vn 0.000000 1.000000 0.000000
vn 0.000000 1.000000 0.000000
vn 0.000000 1.000000 0.000000
vn 0.000000 1.000000 0.000000
vn 0.000000 1.000000 0.000000
vn -0.000001 0.024098 0.999710
vn -0.000001 0.024098 0.999710
vn -0.000001 0.024098 0.999710
vn -0.000001 0.024098 0.999710
vn 0.999761 0.021880 0.000000
vn 0.999761 0.021880 0.000000
vn 0.999761 0.021880 0.000000
vn 0.999761 0.021880 0.000000
vn -0.000002 0.024098 -0.999710
vn -0.000002 0.024098 -0.999710
vn -0.000002 0.024098 -0.999710
vn -0.000002 0.024098 -0.999710
vn -0.999761 0.021884 0.000000
vn -0.999760 0.021884 0.000000
vn -0.999761 0.021884 0.000000
vn -0.999761 0.021884 0.000000
vn 0.000000 1.000000 -0.000000
vn 0.000000 1.000000 0.000000
vn 0.000000 1.000000 -0.000001
vn 0.000000 1.000000 -0.000000
vn 0.000000 1.000000 0.000000
vn 0.000000 1.000000 0.000000
vn 1.000000 0.000000 0.000005
vn 1.000000 0.000000 0.000005
vn 1.000000 0.000000 0.000005
vn 1.000000 0.000000 0.000005
vn 0.000000 1.000000 -0.000000
vn 0.000000 1.000000 -0.000000
vn 0.000000 1.000000 -0.000000
vn 0.000000 1.000000 -0.000000
vn 0.000000 1.000000 -0.000000
vn 0.000000 1.000000 0.000000
vn 0.000000 1.000000 0.000000
vn 0.000000 1.000000 0.000000
vn 0.127540 0.000000 0.991833
vn 0.127540 0.000000 0.991833
vn 0.127540 0.000000 0.991833
vn 0.127540 0.000000 0.991833
vn 0.095345 0.000000 -0.995444
vn 0.095345 0.000000 -0.995444
vn 0.095345 0.000000 -0.995444
vn 0.095345 0.000000 -0.995444
vn 0.903878 0.427791 0.000000
vn 0.903878 0.427791 0.000000
vn 0.903878 0.427791 0.000000
vn 0.903878 0.427791 0.000000
vn 0.000000 0.000000 1.000000
vn 0.000000 0.000000 1.000000
vn 0.000000 0.000000 1.000000
vn 0.000000 0.000000 1.000000
vn 0.707106 0.000000 0.707107
vn 0.707106 0.000000 0.707107
vn 0.707106 0.000000 0.707107
vn 0.707106 0.000000 0.707107
vn 0.707106 0.000000 0.707107
vn 0.707106 0.000000 0.707107
vn 0.707106 0.000000 0.707107
vn 0.707106 0.000000 0.707107
vn 0.707106 0.000000 0.707107
vn 0.707106 0.000000 0.707107
vn 0.707106 0.000000 0.707107
vn 0.707106 0.000000 0.707107
vn 0.707106 0.000000 0.707107
vn 0.707106 0.000000 0.707107
vn 0.707106 0.000000 0.707107
vn -0.000000 -1.000000 0.000000
vn -0.000000 -1.000000 0.000000
vn -0.000000 -1.000000 0.000000
vn -0.000000 -1.000000 0.000000
vn 0.707105 0.000000 -0.707109
vn 0.707105 0.000000 -0.707109
vn 0.707105 0.000000 -0.707109
vn 0.707105 0.000000 -0.707109
vn 0.000000 1.000000 0.000000
vn 0.000000 1.000000 0.000000
vn 0.000000 1.000000 0.000000
vn 0.000000 1.000000 0.000000
vn -0.707108 0.000000 0.707106
vn -0.707108 0.000000 0.707106
vn -0.707108 0.000000 0.707106
vn -0.707108 0.000000 0.707106
vn 0.000000 0.000000 -1.000000
vn 0.000000 0.000000 -1.000000
vn 0.000000 0.000000 -1.000000
vn 0.000000 0.000000 -1.000000
vn 0.707107 -0.000000 -0.707107
vn 0.707107 -0.000000 -0.707107
vn 0.707107 -0.000000 -0.707107
vn 0.707107 -0.000000 -0.707107
vn 0.707107 -0.000000 -0.707107
vn 0.707107 -0.000000 -0.707107
vn 0.707107 -0.000000 -0.707107
vn 0.707107 -0.000000 -0.707107
vn 0.707107 -0.000000 -0.707107
vn 0.707107 -0.000000 -0.707107
vn 0.707107 -0.000000 -0.707107
vn 0.000000 1.000000 0.000000
vn 0.000000 1.000000 0.000000
vn 0.000000 1.000000 0.000000
vn 0.000000 1.000000 0.000000
vn 0.000000 1.000000 0.000000
vn 0.000000 1.000000 0.000000
vn 0.000000 1.000000 0.000000
vn 0.000000 1.000000 0.000000
vn 0.000000 1.000000 0.000000
vn 0.000000 1.000000 0.000000
vn 0.000000 1.000000 0.000000
vn 0.000000 1.000000 0.000000
vn 0.000000 -1.000000 0.000000
vn 0.000000 -1.000000 0.000000
vn 0.000000 -1.000000 0.000000
vn 0.000000 -1.000000 0.000000
vn 0.000000 -1.000000 0.000000
vn 0.000000 -1.000000 0.000000
vn 0.000000 -1.000000 0.000000
vn 0.000000 -1.000000 0.000000
vn 0.000000 -1.000000 0.000000
vn 0.000000 -1.000000 0.000000
vn 0.000000 -1.000000 0.000000
vn 0.000000 -1.000000 0.000000
vn 0.707107 -0.000000 -0.707106
vn 0.707107 -0.000000 -0.707106
vn 0.707107 -0.000000 -0.707106
vn 0.707107 -0.000000 -0.707106
vn 0.000000 -1.000000 -0.000000
vn 0.000000 -1.000000 -0.000000
vn 0.000000 -1.000000 -0.000000
vn 0.000000 -1.000000 -0.000000
vn -0.707104 -0.000000 -0.707109
vn -0.707104 -0.000000 -0.707109
vn -0.707104 -0.000000 -0.707109
vn -0.707104 -0.000000 -0.707109
vn 0.000000 1.000000 -0.000000
vn 0.000000 1.000000 -0.000000
vn 0.000000 1.000000 -0.000000
vn 0.000000 1.000000 -0.000000
vn 0.707105 0.000000 0.707109
vn 0.707105 0.000000 0.707109
vn 0.707105 0.000000 0.707109
vn 0.707105 0.000000 0.707109
s off
g pCube8
f 27/1/1 28/2/2 29/3/3 30/4/4
f 55/5/5 53/6/6 31/7/7 35/8/8
f 70/9/9 57/10/10 1/11/11 2/12/12 56/13/13 73/14/14 3/15/15 4/16/16
f 46/17/17 43/18/18 38/19/19 40/20/20
f 41/21/21 37/22/22 47/23/23 49/24/24
f 50/25/25 48/26/26 5/27/27 6/28/28
f 5/27/29 42/29/30 45/30/31 6/28/32
s 1
f 6/28/33 45/30/34 44/31/35 7/32/36 10/33/37
s off
f 7/32/38 8/34/39 12/35/40 11/36/41
f 8/34/42 9/37/43 13/38/44 12/35/45
f 9/37/46 10/33/47 14/39/48 13/38/49
f 10/33/50 7/32/51 11/36/52 14/39/53
f 11/36/54 12/35/55 16/40/56 15/41/57
f 12/35/58 13/38/59 17/42/60 16/40/61
f 13/38/62 14/39/63 18/43/64 17/42/65
f 14/39/66 11/36/67 15/41/68 18/43/69
f 15/41/70 16/40/71 20/44/72 19/45/73
f 16/40/74 17/42/75 21/46/76 20/44/77
f 17/42/78 18/43/79 22/47/80 21/46/81
f 18/43/82 15/41/83 19/45/84 22/47/85
f 19/45/86 20/44/87 24/48/88 23/49/89
f 20/44/90 21/46/91 25/50/92 24/48/93
f 21/46/94 22/47/95 26/51/96 25/50/97
f 22/47/98 19/45/99 23/49/100 26/51/101
f 23/49/102 24/48/103 28/2/104 27/1/105
f 24/48/106 25/50/107 29/3/108 28/2/109
f 25/50/110 26/51/111 30/4/112 29/3/113
f 26/51/114 23/49/115 27/1/116 30/4/117
s 1
f 39/52/118 41/21/119 49/24/120 51/53/121 9/37/122 8/34/123
s off
f 38/19/124 37/22/125 41/21/126 40/20/127
s 1
f 39/52/118 40/20/128 41/21/119
f 44/31/35 46/17/129 40/20/128 39/52/118 8/34/130 7/32/131
f 51/53/121 50/25/132 6/28/133 10/33/134 9/37/135
s off
f 42/29/136 43/18/137 46/17/138 45/30/139
f 47/23/140 48/26/141 50/25/142 49/24/143
s 1
f 44/31/35 45/30/34 46/17/129
f 49/24/120 50/25/132 51/53/121
s off
f 52/54/144 53/6/145 55/5/146 54/55/147
f 2/12/148 1/11/149 32/56/150 33/57/151
f 67/58/152 66/59/153 68/60/154 69/61/155
f 65/62/156 60/63/157 31/7/158 53/6/159 52/54/160 63/64/161 59/65/162 33/57/163 32/56/164 58/66/165 64/67/166
f 65/62/167 64/67/168 66/59/169 67/58/170
f 64/67/171 58/66/172 68/60/173 66/59/174
f 58/66/175 60/63/176 69/61/177 68/60/178
f 60/63/179 65/62/180 67/58/181 69/61/182
f 4/16/183 3/15/184 34/68/185 36/69/186
f 75/70/187 74/71/188 71/72/189 36/69/190 34/68/191 72/73/192 62/74/193 54/55/194 55/5/195 35/8/196 61/75/197
f 34/68/198 3/15/199 73/14/200 56/13/201 2/12/202 33/57/203 59/65/204 63/64/205 52/54/206 54/55/207 62/74/208 72/73/209
f 32/56/210 1/11/211 57/10/212 70/9/213 4/16/214 36/69/215 71/72/216 61/75/217 35/8/218 31/7/219 60/63/220 58/66/221
f 76/76/222 77/77/223 78/78/224 79/79/225
f 74/71/226 75/70/227 77/77/228 76/76/229
f 75/70/230 61/75/231 78/78/232 77/77/233
f 61/75/234 71/72/235 79/79/236 78/78/237
f 71/72/238 74/71/239 76/76/240 79/79/241
