# This file uses centimeters as units for non-parametric coordinates.

g default
v 65.356255 0.410691 19.264978
v 201.101105 0.410691 19.264978
v 65.356255 0.410691 18.392385
v 201.101105 0.410691 18.392385
v -122.228554 0.410691 19.264978
v 48.905922 0.410691 19.264978
v -122.228554 0.410691 18.392385
v 48.905922 0.410691 18.392385
v 55.767910 0.410691 39.974022
v 55.767910 0.410691 81.786751
v 56.640499 0.410691 39.974022
v 56.640499 0.410691 81.786751
v 55.767910 0.410691 -53.441109
v 55.767910 0.410691 -2.528512
v 56.640499 0.410691 -53.441109
v 56.640499 0.410691 -2.528512
v 65.356255 0.410691 103.359383
v 200.041367 0.410691 103.359383
v 65.356255 0.410691 102.486794
v 200.041367 0.410691 102.486794
v -122.228554 0.410691 103.359383
v 48.905922 0.410691 103.359383
v -122.228554 0.410691 102.486794
v 48.905922 0.410691 102.486794
vt 2.444727 0.494332
vt 14.445541 0.494332
vt 14.445541 0.505668
vt 2.444727 0.505668
vt -13.445541 0.494332
vt 1.051221 0.494332
vt 1.051221 0.505668
vt -13.445541 0.505668
vt 1.205931 0.494332
vt 5.562199 0.494332
vt 5.562199 0.505668
vt 1.205931 0.505668
vt -4.562199 0.494332
vt 0.700092 0.494332
vt 0.700092 0.505668
vt -4.562199 0.505668
vt 2.444727 0.494332
vt 14.445541 0.494332
vt 14.445541 0.505668
vt 2.444727 0.505668
vt -13.445541 0.494332
vt 1.051221 0.494332
vt 1.051221 0.505668
vt -13.445541 0.505668
vn 0.000000 1.000000 0.000000
vn 0.000000 1.000000 0.000000
vn 0.000000 1.000000 0.000000
vn 0.000000 1.000000 0.000000
vn 0.000000 1.000000 0.000000
vn 0.000000 1.000000 0.000000
vn 0.000000 1.000000 0.000000
vn 0.000000 1.000000 0.000000
vn 0.000000 1.000000 0.000000
vn 0.000000 1.000000 0.000000
vn 0.000000 1.000000 0.000000
vn 0.000000 1.000000 0.000000
vn 0.000000 1.000000 0.000000
vn 0.000000 1.000000 0.000000
vn 0.000000 1.000000 0.000000
vn 0.000000 1.000000 0.000000
vn 0.000000 1.000000 0.000000
vn 0.000000 1.000000 0.000000
vn 0.000000 1.000000 0.000000
vn 0.000000 1.000000 0.000000
vn 0.000000 1.000000 0.000000
vn 0.000000 1.000000 0.000000
vn 0.000000 1.000000 0.000000
vn 0.000000 1.000000 0.000000
s off
g Lines
f 1/1/1 2/2/2 4/3/3 3/4/4
f 5/5/5 6/6/6 8/7/7 7/8/8
f 9/9/9 10/10/10 12/11/11 11/12/12
f 13/13/13 14/14/14 16/15/15 15/16/16
f 17/17/17 18/18/18 20/19/19 19/20/20
f 21/21/21 22/22/22 24/23/23 23/24/24
